<?xml version="1.0" encoding="UTF-8"?>
<svg id="Layer_1" data-name="Layer 1" xmlns="http://www.w3.org/2000/svg" viewBox="0 0 406.34 431.02">
  <defs>
    <style>
      .cls-1 {
        stroke-width: 0px;
      }
    </style>
  </defs>
  <path class="cls-1" d="m158.58,430.83c-12.83,0-25.17,0-37.5,0-1.33,0-2.66-.06-3.99-.16-2.42-.19-2.85-1.81-2.81-3.87.04-2.02.9-3.1,2.95-3.22,3.48-.2,6.94-.28,10.42-.92,11.6-2.14,18.7-8.9,21.56-20.2,2.49-9.87,3.41-19.96,4.12-30.09,1.65-23.8.65-47.63,1.1-71.44.09-4.6-1.31-6.13-5.96-5.86-20.24,1.16-40.25-.29-59.66-6.58-45.43-14.73-73.47-45.77-83.89-92.04C-3.72,158.14-1.24,120.18,14.53,83.96,31.06,46.01,58.81,19.21,98.75,6.81c32.57-10.11,65.29-8.6,97.64,2.16,7.89,2.62,15.92,4.82,23.91,7.1,6.17,1.76,11.29.05,14.7-5.45,1.68-2.71,3.81-3.65,6.69-2.97,3.41.8,2.13,3.73,2.2,5.8.74,24.97,1.38,49.94,2.04,74.92.04,1.67.05,3.33-.01,5-.07,1.93.39,4.2-2.61,4.48-2.73.26-3.84-1.3-4.51-3.64-3.31-11.56-7.68-22.71-13.26-33.37-10.51-20.04-24.77-36.4-46.08-45.32-32.03-13.41-71.32-2.53-93.3,24.9-17.53,21.87-26.46,47.02-30.35,74.37-2.73,19.2-3.66,38.46-1.8,57.75,2.87,29.73,10.76,57.6,31.85,80.11,15.39,16.41,34.49,25.24,56.84,26.87,11.61.85,11.66.59,11.64-11.23-.03-21.82.46-43.66-1.14-65.45-.6-8.11-1.45-16.24-3.26-24.2-3.44-15.12-12.85-22.83-28.68-23.54-1.5-.07-3-.05-4.49-.18-2.27-.19-2.43-1.85-2.43-3.63,0-1.83.86-2.78,2.71-2.8,1.17-.02,2.33-.08,3.5-.08,42,0,84-.29,125.99.17,18.71.21,37.16,3.14,54.22,11.64,21.22,10.57,31.28,28.3,33.28,51.47,1.23,14.25-.08,28.01-6.65,40.8-9.59,18.68-26.02,28.37-45.67,33.49-2.7.7-5.44,1.28-8.62,2.02,14.45,2.94,25.08,10.77,33.89,21.5,8.87,10.8,15.06,23.12,20.81,35.74,9.21,20.22,19.29,39.96,34.4,56.55,9.12,10.01,19.69,17.89,33.29,20.98,2.49.57,4.95.62,7.43.69,2.63.08,3.47,1.54,3.45,3.87-.02,2.28-1.27,3.31-3.45,3.37-2,.05-4,.09-6,.08-21.83-.01-43.67-.16-65.5.05-4.43.04-6.91-1.5-9.19-5.19-15.2-24.57-27.79-50.47-39.92-76.63-6.6-14.24-14.01-27.96-24.21-40.08-8.23-9.77-19.14-13.59-31.2-14.73-7.28-.68-14.66-.26-21.98-.49-3.51-.11-5.11.98-5.09,4.82.15,25.32-.51,50.66,1.25,75.94.61,8.76,1.49,17.54,3.6,26.15,3.63,14.75,12.81,22.23,28.03,22.89,2.86.12,7.67-1.86,7.58,3.64-.08,5.39-4.81,3.5-7.69,3.52-24.5.15-49,.11-73.99.12m114.3-253.85c-7.04-8.02-15.98-12.92-26.12-15.76-13.32-3.74-27-2.94-40.62-3.25-5.17-.12-6.42,1.56-6.39,6.53.2,37.29.11,74.57.11,111.86,0,1.17.05,2.33.01,3.5-.09,2.46.97,3.72,3.53,3.68,13.28-.21,26.61.8,39.76-2.14,21.65-4.84,36.68-16.73,41.82-39.12,2.18-9.48,2.05-19.1,1.29-28.74-1.04-13.19-4.42-25.52-13.4-36.55Z"/>
</svg>